# xmcd
#
# Track frame offsets: 
#        150
#        25117
#        45754
#        64246
#        87744
#        108807
#        126282
#        138464
#        157827
#        176823
#        191892
#        219694
#        238131
#        255251
#        279902
#
# Disc length: 4025 seconds
#
# Revision: 1
# Processed by: cddbd v1.5.2PL0 Copyright (c) Steve Scherf et al.
# Submitted via: ExactAudioCopy v0.99pb3
#
DISCID=d10fb70f
DTITLE=Tiamat - Amanethes
DYEAR=2008
DGENRE=Gothic Metal
TTITLE0=The Temple Of The Crescent Moon
TTITLE1=Equinox Of The Gods
TTITLE2=Until The Hellhounds Sleep Again
TTITLE3=Will They Come?
TTITLE4=Lucienne
TTITLE5=Summertime Is Gone
TTITLE6=Katarraktis Apo Aima
TTITLE7=Raining Dead Angels
TTITLE8=Misantropolis
TTITLE9=Amanitis
TTITLE10=Meliae
TTITLE11=Via Dolorosa
TTITLE12=Circles
TTITLE13=Amanes
TTITLE14=Thirstsnake
EXTD=
EXTT0=
EXTT1=
EXTT2=
EXTT3=
EXTT4=
EXTT5=
EXTT6=
EXTT7=
EXTT8=
EXTT9=
EXTT10=
EXTT11=
EXTT12=
EXTT13=
EXTT14=
PLAYORDER=
